<?xml version="1.0" encoding="iso-8859-1"?>
<!-- Generator: Adobe Illustrator 19.0.0, SVG Export Plug-In . SVG Version: 6.00 Build 0)  -->
<svg version="1.1" id="Capa_1" xmlns="http://www.w3.org/2000/svg" xmlns:xlink="http://www.w3.org/1999/xlink" x="0px" y="0px"
	 viewBox="0 0 512 512" style="enable-background:new 0 0 512 512;" xml:space="preserve">
<g>
	<g>
		<path style="fill:#A4C2F7;" d="M426.667,8.533H256v34.133h170.667c9.426,0,17.067-7.641,17.067-17.067
			S436.092,8.533,426.667,8.533z"/>
		<path style="fill:#A4C2F7;" d="M426.667,469.333H256v34.133h170.667c9.426,0,17.067-7.641,17.067-17.067
			S436.092,469.333,426.667,469.333z"/>
	</g>
	<g>
		<path style="fill:#FFFFFF;" d="M85.333,503.467H256v-34.133H85.333c-9.426,0-17.067,7.641-17.067,17.067
			S75.908,503.467,85.333,503.467z"/>
		<path style="fill:#FFFFFF;" d="M85.333,42.667H256V8.533H85.333c-9.426,0-17.067,7.641-17.067,17.067S75.908,42.667,85.333,42.667
			z"/>
	</g>
	<g>
		<path style="fill:#E3E7F2;" d="M110.933,8.533h290.133c9.426,0,17.067,7.641,17.067,17.067l0,0
			c0,9.426-7.641,17.067-17.067,17.067H110.933c-9.426,0-17.067-7.641-17.067-17.067l0,0C93.867,16.174,101.508,8.533,110.933,8.533
			z"/>
		<path style="fill:#E3E7F2;" d="M110.933,469.333h290.133c9.426,0,17.067,7.641,17.067,17.067l0,0
			c0,9.426-7.641,17.067-17.067,17.067H110.933c-9.426,0-17.067-7.641-17.067-17.067l0,0
			C93.867,476.974,101.508,469.333,110.933,469.333z"/>
	</g>
	<path style="fill:#A4C2F7;" d="M256,42.667h119.467V102.4c0,67.176-40.392,127.763-102.4,153.6H256"/>
	<g>
		<path style="fill:#FFFFFF;" d="M256,42.667V256h-17.067c-62.008-25.837-102.4-86.424-102.4-153.6V42.667H256z"/>
		<path style="fill:#FFFFFF;" d="M256,477.867V264.533h-17.067c-62.008,25.837-102.4,86.424-102.4,153.6v59.733H256z"/>
	</g>
	<path style="fill:#A4C2F7;" d="M273.067,256h-34.133v213.333h136.533V409.6C375.466,342.424,335.075,281.837,273.067,256z"/>
	<g>
		
			<linearGradient id="SVGID_1_" gradientUnits="userSpaceOnUse" x1="-48.6782" y1="652.4019" x2="-47.8355" y2="651.6603" gradientTransform="matrix(187.7333 0 0 -213.3333 9312.0645 139210.3438)">
			<stop  offset="0" style="stop-color:#D4E1F4"/>
			<stop  offset="0.1717" style="stop-color:#D4E1F4"/>
			<stop  offset="0.2" style="stop-color:#D4E1F4"/>
			<stop  offset="0.2001" style="stop-color:#DAE4F4"/>
			<stop  offset="0.2007" style="stop-color:#EBEBF4"/>
			<stop  offset="0.2014" style="stop-color:#F6F1F4"/>
			<stop  offset="0.2023" style="stop-color:#FDF4F4"/>
			<stop  offset="0.205" style="stop-color:#FFF5F4"/>
			<stop  offset="0.2522" style="stop-color:#FFF5F4"/>
			<stop  offset="0.26" style="stop-color:#FFF5F4"/>
			<stop  offset="0.26" style="stop-color:#D4E1F4"/>
			<stop  offset="0.3974" style="stop-color:#D4E1F4"/>
			<stop  offset="0.42" style="stop-color:#D4E1F4"/>
			<stop  offset="0.4201" style="stop-color:#DAE4F4"/>
			<stop  offset="0.4207" style="stop-color:#EBEBF4"/>
			<stop  offset="0.4214" style="stop-color:#F6F1F4"/>
			<stop  offset="0.4223" style="stop-color:#FDF4F4"/>
			<stop  offset="0.425" style="stop-color:#FFF5F4"/>
			<stop  offset="0.4894" style="stop-color:#FFF5F4"/>
			<stop  offset="0.5" style="stop-color:#FFF5F4"/>
			<stop  offset="0.5" style="stop-color:#F9F2F4"/>
			<stop  offset="0.5001" style="stop-color:#E8EBF4"/>
			<stop  offset="0.5003" style="stop-color:#DDE5F4"/>
			<stop  offset="0.5005" style="stop-color:#D6E2F4"/>
			<stop  offset="0.501" style="stop-color:#D4E1F4"/>
			<stop  offset="0.7062" style="stop-color:#D4E1F4"/>
			<stop  offset="0.74" style="stop-color:#D4E1F4"/>
			<stop  offset="0.741" style="stop-color:#FFF5F4"/>
			<stop  offset="0.8346" style="stop-color:#FFF5F4"/>
			<stop  offset="0.85" style="stop-color:#FFF5F4"/>
			<stop  offset="0.851" style="stop-color:#D4E1F4"/>
		</linearGradient>
		<path style="fill:url(#SVGID_1_);" d="M247.467,256L247.467,256c-62.008-25.837-85.333-86.424-85.333-153.6V42.667h187.733V102.4
			C349.867,169.576,309.475,230.163,247.467,256z"/>
		
			<linearGradient id="SVGID_2_" gradientUnits="userSpaceOnUse" x1="-48.8666" y1="652.1879" x2="-48.0239" y2="651.4463" gradientTransform="matrix(187.7333 0 0 -213.3333 9312.0645 139423.6719)">
			<stop  offset="0" style="stop-color:#D4E1F4"/>
			<stop  offset="0.1717" style="stop-color:#D4E1F4"/>
			<stop  offset="0.2" style="stop-color:#D4E1F4"/>
			<stop  offset="0.2001" style="stop-color:#DAE4F4"/>
			<stop  offset="0.2007" style="stop-color:#EBEBF4"/>
			<stop  offset="0.2014" style="stop-color:#F6F1F4"/>
			<stop  offset="0.2023" style="stop-color:#FDF4F4"/>
			<stop  offset="0.205" style="stop-color:#FFF5F4"/>
			<stop  offset="0.2522" style="stop-color:#FFF5F4"/>
			<stop  offset="0.26" style="stop-color:#FFF5F4"/>
			<stop  offset="0.26" style="stop-color:#D4E1F4"/>
			<stop  offset="0.3974" style="stop-color:#D4E1F4"/>
			<stop  offset="0.42" style="stop-color:#D4E1F4"/>
			<stop  offset="0.4201" style="stop-color:#DAE4F4"/>
			<stop  offset="0.4207" style="stop-color:#EBEBF4"/>
			<stop  offset="0.4214" style="stop-color:#F6F1F4"/>
			<stop  offset="0.4223" style="stop-color:#FDF4F4"/>
			<stop  offset="0.425" style="stop-color:#FFF5F4"/>
			<stop  offset="0.4894" style="stop-color:#FFF5F4"/>
			<stop  offset="0.5" style="stop-color:#FFF5F4"/>
			<stop  offset="0.5" style="stop-color:#F9F2F4"/>
			<stop  offset="0.5001" style="stop-color:#E8EBF4"/>
			<stop  offset="0.5003" style="stop-color:#DDE5F4"/>
			<stop  offset="0.5005" style="stop-color:#D6E2F4"/>
			<stop  offset="0.501" style="stop-color:#D4E1F4"/>
			<stop  offset="0.7062" style="stop-color:#D4E1F4"/>
			<stop  offset="0.74" style="stop-color:#D4E1F4"/>
			<stop  offset="0.741" style="stop-color:#FFF5F4"/>
			<stop  offset="0.8346" style="stop-color:#FFF5F4"/>
			<stop  offset="0.85" style="stop-color:#FFF5F4"/>
			<stop  offset="0.851" style="stop-color:#D4E1F4"/>
		</linearGradient>
		<path style="fill:url(#SVGID_2_);" d="M238.933,256L238.933,256c62.008,25.837,110.933,86.424,110.933,153.6v59.733H162.133V409.6
			c0-67.176,23.325-127.763,85.333-153.6H238.933z"/>
	</g>
	<g>
		<path style="fill:#428DFF;" d="M426.667,51.2H85.333c-14.138,0-25.6-11.462-25.6-25.6S71.195,0,85.333,0h341.333
			c14.138,0,25.6,11.462,25.6,25.6S440.805,51.2,426.667,51.2z M85.333,17.067c-4.713,0-8.533,3.821-8.533,8.533
			s3.821,8.533,8.533,8.533h341.333c4.713,0,8.533-3.821,8.533-8.533s-3.82-8.533-8.533-8.533H85.333z"/>
		<path style="fill:#428DFF;" d="M426.667,512H85.333c-14.138,0-25.6-11.461-25.6-25.6s11.462-25.6,25.6-25.6h341.333
			c14.138,0,25.6,11.462,25.6,25.6S440.805,512,426.667,512z M85.333,477.867c-4.713,0-8.533,3.82-8.533,8.533
			s3.821,8.533,8.533,8.533h341.333c4.713,0,8.533-3.82,8.533-8.533s-3.82-8.533-8.533-8.533H85.333z"/>
		<path style="fill:#428DFF;" d="M273.067,264.533h-34.133c-1.127-0.001-2.243-0.225-3.283-0.658
			C170.377,236.817,127.872,173.059,128,102.4V42.667c-0.001-2.263,0.898-4.434,2.499-6.035c1.6-1.6,3.771-2.499,6.035-2.499
			h238.933c2.263-0.001,4.434,0.898,6.035,2.499c1.6,1.6,2.499,3.771,2.499,6.035V102.4c0.128,70.659-42.377,134.417-107.65,161.475
			C275.31,264.309,274.194,264.532,273.067,264.533z M240.663,247.467h30.675c58.077-24.805,95.711-81.914,95.596-145.067V51.2
			H145.067v51.2C144.952,165.552,182.586,222.661,240.663,247.467L240.663,247.467z"/>
		<path style="fill:#428DFF;" d="M375.467,477.867H136.533c-2.263,0.001-4.434-0.898-6.035-2.499c-1.6-1.6-2.499-3.771-2.499-6.035
			V409.6c-0.128-70.659,42.377-134.417,107.65-161.475c1.04-0.434,2.156-0.657,3.283-0.658h34.133
			c1.127,0.001,2.243,0.225,3.283,0.658C341.623,275.183,384.128,338.941,384,409.6v59.733c0.001,2.263-0.898,4.434-2.499,6.035
			S377.73,477.867,375.467,477.867L375.467,477.867z M145.067,460.8h221.867v-51.2c0.115-63.152-37.519-120.261-95.596-145.067
			h-30.675c-58.077,24.805-95.711,81.914-95.596,145.067V460.8z"/>
		<circle style="fill:#428DFF;" cx="153.6" cy="460.8" r="8.533"/>
		<circle style="fill:#428DFF;" cx="187.733" cy="460.8" r="8.533"/>
		<circle style="fill:#428DFF;" cx="221.867" cy="460.8" r="8.533"/>
		<circle style="fill:#428DFF;" cx="256" cy="460.8" r="8.533"/>
		<circle style="fill:#428DFF;" cx="290.133" cy="460.8" r="8.533"/>
		<circle style="fill:#428DFF;" cx="324.267" cy="460.8" r="8.533"/>
		<circle style="fill:#428DFF;" cx="358.4" cy="460.8" r="8.533"/>
		<circle style="fill:#428DFF;" cx="170.667" cy="443.733" r="8.533"/>
		<circle style="fill:#428DFF;" cx="204.8" cy="443.733" r="8.533"/>
		<circle style="fill:#428DFF;" cx="238.933" cy="443.733" r="8.533"/>
		<circle style="fill:#428DFF;" cx="273.067" cy="443.733" r="8.533"/>
		<circle style="fill:#428DFF;" cx="307.2" cy="443.733" r="8.533"/>
		<circle style="fill:#428DFF;" cx="341.333" cy="443.733" r="8.533"/>
		<circle style="fill:#428DFF;" cx="187.733" cy="426.667" r="8.533"/>
		<circle style="fill:#428DFF;" cx="221.867" cy="426.667" r="8.533"/>
		<circle style="fill:#428DFF;" cx="256" cy="281.6" r="8.533"/>
		<circle style="fill:#428DFF;" cx="204.8" cy="187.733" r="8.533"/>
		<circle style="fill:#428DFF;" cx="238.933" cy="187.733" r="8.533"/>
		<circle style="fill:#428DFF;" cx="273.067" cy="187.733" r="8.533"/>
		<circle style="fill:#428DFF;" cx="307.2" cy="187.733" r="8.533"/>
		<circle style="fill:#428DFF;" cx="290.133" cy="170.667" r="8.533"/>
		<circle style="fill:#428DFF;" cx="307.2" cy="153.6" r="8.533"/>
		<circle style="fill:#428DFF;" cx="221.867" cy="170.667" r="8.533"/>
		<circle style="fill:#428DFF;" cx="256" cy="170.667" r="8.533"/>
		<circle style="fill:#428DFF;" cx="204.8" cy="153.6" r="8.533"/>
		<circle style="fill:#428DFF;" cx="221.867" cy="204.8" r="8.533"/>
		<circle style="fill:#428DFF;" cx="238.933" cy="221.867" r="8.533"/>
		<circle style="fill:#428DFF;" cx="273.067" cy="221.867" r="8.533"/>
		<circle style="fill:#428DFF;" cx="256" cy="204.8" r="8.533"/>
		<circle style="fill:#428DFF;" cx="290.133" cy="204.8" r="8.533"/>
		<circle style="fill:#428DFF;" cx="256" cy="307.2" r="8.533"/>
		<circle style="fill:#428DFF;" cx="256" cy="332.8" r="8.533"/>
		<circle style="fill:#428DFF;" cx="256" cy="358.4" r="8.533"/>
		<circle style="fill:#428DFF;" cx="256" cy="384" r="8.533"/>
		<circle style="fill:#428DFF;" cx="256" cy="409.6" r="8.533"/>
		<circle style="fill:#428DFF;" cx="290.133" cy="426.667" r="8.533"/>
		<circle style="fill:#428DFF;" cx="324.267" cy="426.667" r="8.533"/>
	</g>
</g>
<g>
</g>
<g>
</g>
<g>
</g>
<g>
</g>
<g>
</g>
<g>
</g>
<g>
</g>
<g>
</g>
<g>
</g>
<g>
</g>
<g>
</g>
<g>
</g>
<g>
</g>
<g>
</g>
<g>
</g>
</svg>
