<?xml version="1.0" encoding="iso-8859-1"?>
<!-- Generator: Adobe Illustrator 19.0.0, SVG Export Plug-In . SVG Version: 6.00 Build 0)  -->
<svg version="1.1" id="Layer_1" xmlns="http://www.w3.org/2000/svg" xmlns:xlink="http://www.w3.org/1999/xlink" x="0px" y="0px"
	 viewBox="0 0 512 512" style="enable-background:new 0 0 512 512;" xml:space="preserve">
<g>
	<path style="fill:#49618C;" d="M107.461,205.816C48.112,205.816,0,253.927,0,313.276s48.112,107.461,107.461,107.461
		s107.461-48.112,107.461-107.461S166.81,205.816,107.461,205.816z M107.461,398.551c-47.096,0-85.274-38.179-85.274-85.274
		c0-47.096,38.179-85.274,85.274-85.274s85.274,38.179,85.274,85.274C192.736,360.372,154.557,398.551,107.461,398.551z"/>
	<path style="fill:#49618C;" d="M404.539,205.816c-59.35,0-107.461,48.112-107.461,107.461s48.112,107.461,107.461,107.461
		S512,372.625,512,313.276S463.889,205.816,404.539,205.816z M404.539,398.551c-47.096,0-85.274-38.179-85.274-85.274
		c0-47.096,38.179-85.274,85.274-85.274s85.274,38.179,85.274,85.274S451.635,398.551,404.539,398.551z"/>
</g>
<g>
	<path style="fill:#E6E6E6;" d="M107.461,403.788c-49.909,0-90.513-40.603-90.513-90.512s40.604-90.512,90.513-90.512
		c49.908,0,90.512,40.603,90.512,90.512S157.369,403.788,107.461,403.788z M107.461,233.238c-44.133,0-80.038,35.905-80.038,80.037
		s35.905,80.037,80.038,80.037s80.037-35.905,80.037-80.037S151.594,233.238,107.461,233.238z"/>
	<path style="fill:#E6E6E6;" d="M404.539,403.788c-49.909,0-90.513-40.603-90.513-90.512s40.604-90.512,90.513-90.512
		c49.908,0,90.512,40.603,90.512,90.512S454.448,403.788,404.539,403.788z M404.539,233.238c-44.133,0-80.038,35.905-80.038,80.037
		s35.905,80.037,80.038,80.037s80.037-35.905,80.037-80.037S448.672,233.238,404.539,233.238z"/>
</g>
<path style="fill:#52BED3;" d="M404.702,130.141h-7.636c-3.76,0-6.809,3.048-6.809,6.809c0,3.76,3.048,6.809,6.809,6.809h7.636
	c13.293,0,24.108-10.815,24.108-24.109s-10.815-24.109-24.108-24.109h-48.469c-2.073,0-4.033,0.945-5.324,2.565
	s-1.774,3.743-1.311,5.763l11.457,50.025h-11.907h-110.11c-4.995,0-9.983,0.392-14.897,1.149l-9.838-42.956
	c-0.84-3.665-4.49-5.957-8.158-5.117c-3.665,0.84-5.956,4.492-5.116,8.157l9.828,42.916c-26.062,7.795-47.585,25.949-59.689,50.63
	l-49.818,101.604c-1.035,2.111-0.908,4.605,0.335,6.599c1.244,1.994,3.427,3.206,5.778,3.206h132.421
	c3.76,0,6.809-3.048,6.809-6.809s-3.048-6.809-6.809-6.809H118.384l45.01-91.798c10.284-20.97,28.462-36.47,50.509-43.323
	l29.955,130.796c0.722,3.154,3.527,5.291,6.63,5.291c0.503,0,1.015-0.057,1.526-0.174c1.519-0.348,2.796-1.183,3.717-2.297
	c0.203,0.167,0.415,0.326,0.641,0.47c3.167,2.029,7.377,1.107,9.406-2.058l87.089-135.865h11.303l33.732,147.284
	c0.722,3.154,3.527,5.29,6.63,5.29c0.503,0,1.015-0.057,1.526-0.174c3.665-0.84,5.956-4.492,5.117-8.157l-46.4-202.598h39.926
	c5.785,0,10.491,4.706,10.491,10.491C415.194,125.431,410.487,130.141,404.702,130.141z M255.871,293.602l-28.685-125.251
	c3.914-0.556,7.879-0.839,11.849-0.839h97.659L255.871,293.602z"/>
<path style="fill:#CE2647;" d="M233.92,118.683h-55.807c-3.402,0-6.417-2.189-7.469-5.424l-3.812-11.709
	c-0.863-2.649-0.258-5.557,1.59-7.641c1.847-2.086,4.663-3.036,7.394-2.499l59.619,11.709c3.969,0.779,6.696,4.444,6.306,8.469
	C241.348,115.613,237.965,118.683,233.92,118.683z"/>
<path style="fill:#49618C;" d="M256.893,342.002c-13.909,0-25.225-11.316-25.225-25.225s11.316-25.225,25.225-25.225
	s25.225,11.316,25.225,25.225S270.803,342.002,256.893,342.002z M256.893,307.265c-5.246,0-9.513,4.267-9.513,9.513
	c0,5.246,4.267,9.513,9.513,9.513c5.246,0,9.513-4.267,9.513-9.513C266.407,311.532,262.139,307.265,256.893,307.265z"/>
<g>
</g>
<g>
</g>
<g>
</g>
<g>
</g>
<g>
</g>
<g>
</g>
<g>
</g>
<g>
</g>
<g>
</g>
<g>
</g>
<g>
</g>
<g>
</g>
<g>
</g>
<g>
</g>
<g>
</g>
</svg>
